<svg id="visual" viewBox="0 0 1960 1080" width="1960" height="1080" xmlns="http://www.w3.org/2000/svg" xmlns:xlink="http://www.w3.org/1999/xlink" version="1.1"><g stroke-width="1" stroke-linejoin="bevel"><path d="M880.1 613L1067.9 422L856.1 419Z" fill="#297ea6" stroke="#297ea6"></path><path d="M880.1 613L1080.9 630L1067.9 422Z" fill="#15384f" stroke="#15384f"></path><path d="M1320.7 253L1088.9 207L1067.9 422Z" fill="#246688" stroke="#246688"></path><path d="M1067.9 422L897.1 177L856.1 419Z" fill="#246688" stroke="#246688"></path><path d="M1080.9 630L1283.7 463L1067.9 422Z" fill="#1d4e6b" stroke="#1d4e6b"></path><path d="M856.1 419L657.3 638L880.1 613Z" fill="#15384f" stroke="#15384f"></path><path d="M880.1 613L887.1 858L1080.9 630Z" fill="#246688" stroke="#246688"></path><path d="M1088.9 207L897.1 177L1067.9 422Z" fill="#1d4e6b" stroke="#1d4e6b"></path><path d="M856.1 419L626.3 397L657.3 638Z" fill="#277297" stroke="#277297"></path><path d="M632.3 186L626.3 397L856.1 419Z" fill="#1d4e6b" stroke="#1d4e6b"></path><path d="M657.3 638L887.1 858L880.1 613Z" fill="#1d4e6b" stroke="#1d4e6b"></path><path d="M1080.9 630L1330.7 624L1283.7 463Z" fill="#00101c" stroke="#00101c"></path><path d="M887.1 858L1099.9 855L1080.9 630Z" fill="#246688" stroke="#246688"></path><path d="M1323.7 843L1330.7 624L1080.9 630Z" fill="#297ea6" stroke="#297ea6"></path><path d="M1545.4 402L1320.7 253L1283.7 463Z" fill="#246688" stroke="#246688"></path><path d="M1283.7 463L1320.7 253L1067.9 422Z" fill="#0c2435" stroke="#0c2435"></path><path d="M897.1 177L632.3 186L856.1 419Z" fill="#246688" stroke="#246688"></path><path d="M657.3 638L676.3 889L887.1 858Z" fill="#19435d" stroke="#19435d"></path><path d="M887.1 858L1095.9 1080L1099.9 855Z" fill="#1d4e6b" stroke="#1d4e6b"></path><path d="M460.6 682L676.3 889L657.3 638Z" fill="#081a28" stroke="#081a28"></path><path d="M1099.9 855L1323.7 843L1080.9 630Z" fill="#1d4e6b" stroke="#1d4e6b"></path><path d="M1095.9 1080L1323.7 843L1099.9 855Z" fill="#15384f" stroke="#15384f"></path><path d="M1089.9 0L888.1 0L897.1 177Z" fill="#112e42" stroke="#112e42"></path><path d="M897.1 177L656.3 0L632.3 186Z" fill="#19435d" stroke="#19435d"></path><path d="M1089.9 0L897.1 177L1088.9 207Z" fill="#112e42" stroke="#112e42"></path><path d="M1268.7 0L1089.9 0L1088.9 207Z" fill="#246688" stroke="#246688"></path><path d="M465.6 252L442.6 393L626.3 397Z" fill="#297ea6" stroke="#297ea6"></path><path d="M626.3 397L442.6 393L657.3 638Z" fill="#205a7a" stroke="#205a7a"></path><path d="M442.6 393L460.6 682L657.3 638Z" fill="#081a28" stroke="#081a28"></path><path d="M632.3 186L465.6 252L626.3 397Z" fill="#205a7a" stroke="#205a7a"></path><path d="M431.6 0L465.6 252L632.3 186Z" fill="#246688" stroke="#246688"></path><path d="M1323.7 843L1504.4 654L1330.7 624Z" fill="#112e42" stroke="#112e42"></path><path d="M1330.7 624L1545.4 402L1283.7 463Z" fill="#19435d" stroke="#19435d"></path><path d="M675.3 1080L855.1 1080L676.3 889Z" fill="#205a7a" stroke="#205a7a"></path><path d="M676.3 889L855.1 1080L887.1 858Z" fill="#297ea6" stroke="#297ea6"></path><path d="M888.1 0L656.3 0L897.1 177Z" fill="#00101c" stroke="#00101c"></path><path d="M1320.7 253L1268.7 0L1088.9 207Z" fill="#15384f" stroke="#15384f"></path><path d="M1502.4 191L1268.7 0L1320.7 253Z" fill="#15384f" stroke="#15384f"></path><path d="M855.1 1080L1095.9 1080L887.1 858Z" fill="#00101c" stroke="#00101c"></path><path d="M1504.4 654L1545.4 402L1330.7 624Z" fill="#081a28" stroke="#081a28"></path><path d="M1545.4 402L1502.4 191L1320.7 253Z" fill="#081a28" stroke="#081a28"></path><path d="M232.8 835L441.6 854L460.6 682Z" fill="#0c2435" stroke="#0c2435"></path><path d="M460.6 682L441.6 854L676.3 889Z" fill="#297ea6" stroke="#297ea6"></path><path d="M1323.7 843L1513.4 824L1504.4 654Z" fill="#246688" stroke="#246688"></path><path d="M1504.4 654L1730.2 433L1545.4 402Z" fill="#112e42" stroke="#112e42"></path><path d="M1508.4 1080L1513.4 824L1323.7 843Z" fill="#277297" stroke="#277297"></path><path d="M449.6 1080L675.3 1080L676.3 889Z" fill="#205a7a" stroke="#205a7a"></path><path d="M1095.9 1080L1340.7 1080L1323.7 843Z" fill="#277297" stroke="#277297"></path><path d="M212.8 185L224.8 441L442.6 393Z" fill="#297ea6" stroke="#297ea6"></path><path d="M442.6 393L224.8 441L460.6 682Z" fill="#1d4e6b" stroke="#1d4e6b"></path><path d="M656.3 0L431.6 0L632.3 186Z" fill="#0c2435" stroke="#0c2435"></path><path d="M212.8 185L442.6 393L465.6 252Z" fill="#297ea6" stroke="#297ea6"></path><path d="M1722.2 208L1533.4 0L1502.4 191Z" fill="#112e42" stroke="#112e42"></path><path d="M1502.4 191L1533.4 0L1268.7 0Z" fill="#205a7a" stroke="#205a7a"></path><path d="M441.6 854L449.6 1080L676.3 889Z" fill="#15384f" stroke="#15384f"></path><path d="M227.8 1080L449.6 1080L441.6 854Z" fill="#081a28" stroke="#081a28"></path><path d="M1779.2 638L1730.2 433L1504.4 654Z" fill="#112e42" stroke="#112e42"></path><path d="M1545.4 402L1722.2 208L1502.4 191Z" fill="#205a7a" stroke="#205a7a"></path><path d="M224.8 441L180.8 645L460.6 682Z" fill="#277297" stroke="#277297"></path><path d="M1340.7 1080L1508.4 1080L1323.7 843Z" fill="#112e42" stroke="#112e42"></path><path d="M1723.2 856L1779.2 638L1504.4 654Z" fill="#081a28" stroke="#081a28"></path><path d="M180.8 645L232.8 835L460.6 682Z" fill="#0c2435" stroke="#0c2435"></path><path d="M431.6 0L212.8 185L465.6 252Z" fill="#246688" stroke="#246688"></path><path d="M224.8 441L0 435L180.8 645Z" fill="#081a28" stroke="#081a28"></path><path d="M1730.2 433L1722.2 208L1545.4 402Z" fill="#277297" stroke="#277297"></path><path d="M1723.2 856L1504.4 654L1513.4 824Z" fill="#297ea6" stroke="#297ea6"></path><path d="M1960 220L1768.2 0L1722.2 208Z" fill="#205a7a" stroke="#205a7a"></path><path d="M1508.4 1080L1723.2 856L1513.4 824Z" fill="#205a7a" stroke="#205a7a"></path><path d="M431.6 0L191.8 0L212.8 185Z" fill="#19435d" stroke="#19435d"></path><path d="M212.8 185L0 435L224.8 441Z" fill="#205a7a" stroke="#205a7a"></path><path d="M0 891L227.8 1080L232.8 835Z" fill="#00101c" stroke="#00101c"></path><path d="M232.8 835L227.8 1080L441.6 854Z" fill="#081a28" stroke="#081a28"></path><path d="M1960 399L1722.2 208L1730.2 433Z" fill="#00101c" stroke="#00101c"></path><path d="M1722.2 208L1768.2 0L1533.4 0Z" fill="#081a28" stroke="#081a28"></path><path d="M0 182L0 435L212.8 185Z" fill="#297ea6" stroke="#297ea6"></path><path d="M180.8 645L0 891L232.8 835Z" fill="#277297" stroke="#277297"></path><path d="M0 435L0 631L180.8 645Z" fill="#00101c" stroke="#00101c"></path><path d="M1960 862L1960 634L1779.2 638Z" fill="#277297" stroke="#277297"></path><path d="M1508.4 1080L1745.2 1080L1723.2 856Z" fill="#246688" stroke="#246688"></path><path d="M1779.2 638L1960 399L1730.2 433Z" fill="#19435d" stroke="#19435d"></path><path d="M1960 634L1960 399L1779.2 638Z" fill="#112e42" stroke="#112e42"></path><path d="M1960 862L1779.2 638L1723.2 856Z" fill="#00101c" stroke="#00101c"></path><path d="M191.8 0L0 182L212.8 185Z" fill="#00101c" stroke="#00101c"></path><path d="M0 631L0 891L180.8 645Z" fill="#1d4e6b" stroke="#1d4e6b"></path><path d="M1960 399L1960 220L1722.2 208Z" fill="#19435d" stroke="#19435d"></path><path d="M1745.2 1080L1960 862L1723.2 856Z" fill="#15384f" stroke="#15384f"></path><path d="M191.8 0L0 0L0 182Z" fill="#19435d" stroke="#19435d"></path><path d="M1960 220L1960 0L1768.2 0Z" fill="#277297" stroke="#277297"></path><path d="M0 891L0 1080L227.8 1080Z" fill="#277297" stroke="#277297"></path><path d="M1745.2 1080L1960 1080L1960 862Z" fill="#19435d" stroke="#19435d"></path></g></svg>